<svg
    width="32"
    height="62"
    viewBox="0 0 32 62"
    fill="currentColor"
    xmlns="http://www.w3.org/2000/svg"
>
    <path
    d="M29.6053 24.1055H1.97368C0.829934 24.1055 0 24.8137 0 25.7897V60.316C0 61.292 0.829934 62.0002 1.97368 62.0002H29.6053C30.749 62.0002 31.5789 61.292 31.5789 60.316V25.7897C31.5789 24.8137 30.749 24.1055 29.6053 24.1055Z"
    fill="currentColor"
    />
    <path
    fill-rule="evenodd"
    clip-rule="evenodd"
    d="M24.6711 34.589C25.2632 34.589 25.658 34.2642 25.658 33.777V29.7168C25.658 29.2296 25.2632 28.9048 24.6711 28.9048H6.90795C6.31585 28.9048 5.92111 29.2296 5.92111 29.7168V33.777C5.92111 34.2642 6.31585 34.589 6.90795 34.589H24.6711ZM25.6571 42.6446C25.6571 43.1318 25.2624 43.4566 24.6703 43.4566H6.90713C6.31502 43.4566 5.92029 43.1318 5.92029 42.6446V38.5844C5.92029 38.0972 6.31502 37.7724 6.90713 37.7724H24.6703C25.2624 37.7724 25.6571 38.0972 25.6571 38.5844V42.6446ZM13.815 48.7621C13.815 49.8458 14.7032 50.7326 15.7887 50.7326C16.8742 50.7326 17.7624 49.8458 17.7624 48.7621C17.7624 47.6783 16.8742 46.7915 15.7887 46.7915C14.7032 46.7915 13.815 47.6783 13.815 48.7621ZM13.815 55.6588C13.815 56.7426 14.7032 57.6294 15.7887 57.6294C16.8742 57.6294 17.7624 56.7426 17.7624 55.6588C17.7624 54.5751 16.8742 53.6883 15.7887 53.6883C14.7032 53.6883 13.815 54.5751 13.815 55.6588Z"
    fill="#fff"
    />
    <path
    d="M13.5814 5.78955L9.47611 2.00008L5.37085 5.78955"
    stroke="currentColor"
    stroke-width="2"
    stroke-linecap="round"
    />
    <path
    d="M9.47606 14.316V2.27394"
    stroke="currentColor"
    stroke-width="2"
    stroke-linecap="round"
    />
    <path
    d="M26.8421 10.8423L22.7369 14.6318L18.6316 10.8423"
    stroke="currentColor"
    stroke-width="2"
    stroke-linecap="round"
    />
    <path
    d="M22.7368 2.31579V14.3579"
    stroke="currentColor"
    stroke-width="2"
    stroke-linecap="round"
    />
</svg>